<?xml version="1.0" encoding="iso-8859-1"?>
<!DOCTYPE svg PUBLIC "-//W3C//DTD SVG 1.1//EN" "http://www.w3.org/Graphics/SVG/1.1/DTD/svg11.dtd">
<svg xmlns="http://www.w3.org/2000/svg" xmlns:xlink="http://www.w3.org/1999/xlink" version="1.1"
viewBox="0 0 32 32" style="enable-background:new 0 0 32 32; fill: rgb(255, 255, 255);" xml:space="preserve">
<g transform="matrix(1 0 0 1 1 2.5)">
<path d="M 0 1.20787 C 0 0.54078 0.54078 0 1.20787 0 L 28.79213 0 L 28.79213 0 C 29.459220000000002 0 30 0.54078 30 1.20787 L 30 3.7921300000000002 L 30 3.7921300000000002 C 30 4.45922 29.45922 5 28.79213 5 L 1.2078699999999998 5 L 1.2078699999999998 5 C 0.5407799999999998 5 -2.220446049250313e-16 4.45922 -2.220446049250313e-16 3.7921300000000002 z"/>
</g>
<g transform="matrix(1 0 0 1 1 13.5)">
<path d="M 0 1.20787 C 0 0.54078 0.54078 0 1.20787 0 L 28.79213 0 L 28.79213 0 C 29.459220000000002 0 30 0.54078 30 1.20787 L 30 3.7921300000000002 L 30 3.7921300000000002 C 30 4.45922 29.45922 5 28.79213 5 L 1.2078699999999998 5 L 1.2078699999999998 5 C 0.5407799999999998 5 -2.220446049250313e-16 4.45922 -2.220446049250313e-16 3.7921300000000002 z"/>
</g>
<g transform="matrix(1 0 0 1 1 24.5)">
<path d="M 0 1.20787 C 0 0.54078 0.54078 0 1.20787 0 L 28.79213 0 L 28.79213 0 C 29.459220000000002 0 30 0.54078 30 1.20787 L 30 3.7921300000000002 L 30 3.7921300000000002 C 30 4.45922 29.45922 5 28.79213 5 L 1.2078699999999998 5 L 1.2078699999999998 5 C 0.5407799999999998 5 -2.220446049250313e-16 4.45922 -2.220446049250313e-16 3.7921300000000002 z"/>
</g>
</svg>