<?xml version="1.0" encoding="UTF-8"?>
<svg version="1.1" viewBox="0 0 2e3 2e3" xml:space="preserve" xmlns="http://www.w3.org/2000/svg">
  <defs>
    <filter id="a" x="-200%" y="-200%" width="600%" height="600%">
    	<feOffset dx="0.0" dy="0.0" in="SourceGraphic" result="offOut"/>
    	<feGaussianBlur in="offOut" result="blurOut" stdDeviation="20"/>
    	<feFlood flood-color="#000000" result="flood"/>
    	<feComposite in="flood" in2="blurOut" operator="in" result="blendOut0"/>
    	<feBlend in="blendOut0" in2="blendOut0" result="blendOut1"/>
    	<feBlend in="blendOut1" in2="blendOut0" result="blendOut2"/>
    	<feBlend in="blendOut2" in2="blendOut0" result="blendOut3"/>
    	<feBlend in="SourceGraphic" in2="blendOut3"/>
    </filter>
  </defs>
	<path d="m312.51 1498.1c204-48.15 408-96.3 530.23-83.65 122.22 12.65 162.68 86.1 198.13 101.95 35.44 15.86 65.88-25.88 28.64-101.59s-142.17-185.39-94-207.98c48.16-22.59 249.41 41.92 321.13 122.88 71.72 80.95 13.91 178.35 75.91 241.43s243.81 91.86 278.56 56.52c34.74-35.34-77.57-134.79-96.36-190.85s55.94-68.73 105.15-48.43c49.2 20.3 72.89 73.57 111.12 120.4 38.23 46.84 91.01 87.24 119.89 146.35 28.87 59.11 33.84 136.94 0.55 178.09s-104.84 45.63-182.84 52.22c-78 6.6-162.46 15.3-258.13 30.13-95.67 14.84-202.55 35.81-275.84 17.42-73.3-18.38-113.01-76.11-172.55-78.89s-138.91 49.39-307.87 69.31c-168.97 19.92-427.53 7.59-540.06-63.49-112.54-71.08-79.04-200.91-28.31-271.01 50.72-70.1 118.69-80.46 186.65-90.81z" fill="#fff" opacity="0.4" filter="url(#a)"/>
	<path d="m1193.2 643.16c72.21 45.22 144.43 90.44 224.73 121.15 80.31 30.72 168.71 46.92 174.28 98.37 5.56 51.45-71.72 138.14-100.99 194.96-29.28 56.81-10.55 83.74 66.52 108.56 77.07 24.83 212.49 47.54 283.39 5.61 70.91-41.94 77.29-148.52 83.48-235.69 6.2-87.17 12.2-154.94-0.66-227.5-12.87-72.55-44.61-149.91-132.25-191.29-87.65-41.39-231.21-46.82-304.72-74.78-73.5-27.96-76.96-78.46-72.51-118.19s16.82-68.69 16.3-106.68c-0.51-37.99-13.91-85.02-72.32-111.71-58.41-26.68-161.83-33.03-217.62-13.69s-63.95 64.36-86.95 96.18c-23 31.81-60.83 50.42-76.58 99.65s-9.42 129.1 30.24 193.38c39.67 64.29 112.66 112.98 185.66 161.67z" fill="#fff" opacity="0.4" filter="url(#a)"/>
	<path d="m952.77 739.66c24.42 20.95 48.85 41.9 54.82 66.55 5.98 24.66-6.49 53.02-54.13 89.84s-130.46 82.1-193.3 176.16-105.71 236.91-114.5 326.51c-8.8 89.61 16.46 125.98 27.45 173.89 11 47.9 7.72 107.34-30.67 148.92-38.38 41.59-111.87 65.32-133.91-46.13-22.05-111.46 7.35-358.1 13.46-462.31 6.11-104.2-11.07-65.95-10.93-159.02s17.61-317.45 8.63-461.42-44.41-207.53-8.88-220.71c35.54-13.18 142.04 24.02 192.54 63.43 50.49 39.41 44.98 81.03 77.22 132.11 32.23 51.08 102.21 111.63 172.2 172.18z" fill="#fff" opacity="0.4" filter="url(#a)"/>
	<path d="m829.66 538.23c23.12 12.69 46.24 25.38 73.11 50.33 26.86 24.95 57.47 62.14-10.43 151.85s-234.3 231.93-329.43 282.08c-95.14 50.15-119.01 8.22-171.07-36.1-52.07-44.32-132.34-91.05-177.37-151.85-45.03-60.79-54.82-135.66-68.13-194.11-13.3-58.45-30.12-100.5-53.5-201.38-23.38-100.89-53.33-260.61-74.86-340.21-21.52-79.59-34.63-79.06 128.36-84.24 163-5.18 502.11-16.09 633.35 0 131.25 16.09 54.63 59.16-14.61 99.36s-131.09 77.52-160.24 120.92-25.58 92.89 17.34 144.46 125.2 105.23 207.48 158.89z" fill="#fff" opacity="0.4" filter="url(#a)"/>
	<path d="m2e3 374.01c-184.84-18.19-369.68-36.39-445.25-85.9s-41.89-130.35 20.27-173.32c62.15-42.98 152.76-48.08 228.34-50.12 75.57-2.05 136.11-1.03 196.64 0" fill="#fff" opacity="0.4" filter="url(#a)"/>
	<path d="m241.11 823.57c79.74 53.28 159.48 106.56 129.24 167.52-30.23 60.96-170.44 129.6-150.88 156.49 19.56 26.88 198.88 12.02 210.52 71.67 11.64 59.66-144.4 193.84-222.44 208.03-78.03 14.19-78.05-91.62-84.16-238.35s-18.3-334.37 0.31-402.09c18.6-67.71 68-15.49 117.41 36.73z" fill="#fff" opacity="0.4" filter="url(#a)"/>
</svg>
