<?xml version="1.0" encoding="UTF-8"?>
<svg version="1.1" viewBox="0 0 720 1600" xml:space="preserve" xmlns="http://www.w3.org/2000/svg">
  <defs>
    <filter id="a" x="-200%" y="-200%" width="600%" height="600%">
    	<feOffset dx="-2.9420494E-6" dy="67.306244" in="SourceGraphic" result="offOut"/>
    	<feGaussianBlur in="offOut" result="blurOut" stdDeviation="15.836762"/>
    	<feFlood flood-color="#000000" result="flood"/>
    	<feComposite in="flood" in2="blurOut" operator="in" result="blendOut0"/>
    	<feBlend in="SourceGraphic" in2="blendOut0"/>
    </filter>
    <filter id="b" x="-200%" y="-200%" width="600%" height="600%" >
    	<feOffset result="offOut" in="SourceGraphic" dx="-2.9420494E-6" dy="67.306244" />
    	<feGaussianBlur result="blurOut" in="offOut" stdDeviation="15.836762" />
    	<feFlood flood-color="#000000" flood-opacity="1.000" result="flood"/>
    	<feComposite in="flood" in2="blurOut" operator="in" result="blendOut0"/>
    	<feBlend in="SourceGraphic" in2="blendOut0" mode="normal" />
    </filter>
    <filter id="c" x="-200%" y="-200%" width="600%" height="600%">
    	<feOffset dx="-73.612816" dy="-6.4354367E-6" in="SourceGraphic" result="offOut"/>
    	<feGaussianBlur in="offOut" result="blurOut" stdDeviation="47.848328"/>
    	<feFlood flood-color="#000000" result="flood"/>
    	<feComposite in="flood" in2="blurOut" operator="in" result="blendOut0"/>
    	<feBlend in="SourceGraphic" in2="blendOut0"/>
    </filter>
    <filter id="d" x="-200%" y="-200%" width="600%" height="600%">
    	<feOffset dx="-1.7857927E-6" dy="-40.854176" in="SourceGraphic" result="offOut"/>
    	<feGaussianBlur in="offOut" result="blurOut" stdDeviation="17.508932"/>
    	<feFlood flood-color="#000000" result="flood"/>
    	<feComposite in="flood" in2="blurOut" operator="in" result="blendOut0"/>
    	<feBlend in="SourceGraphic" in2="blendOut0"/>
    </filter>
  </defs>
	<path d="m0 110 246.31 237.51q49.43 47.65-3.15 97.93l-243.16 244.56v-580z" fill="#fff" fill-opacity=".4" filter="url(#a)"/>
	<path d="m0.97-39.65 246.31 237.51q49.43 47.65-3.15 97.93l-243.16 244.56v-580z" fill="#fff" fill-opacity=".4" filter="url(#b)"/>
	<path d="m720 0v950q4.11 172.92-168.3 95.94l-206.55-98.34q-225.49-94.59-64.77-244.55l214.28-224.49q123-114.41-52.74-303.41l-191.92-175.15" fill="#fff" fill-opacity=".4" filter="url(#c)"/>
	<path d="m0 1600c22.12-133.61 44.25-267.22 76.58-286.58s74.86 75.53 102.79 100.19 41.25-20.91 17.15-92.8c-24.09-71.88-85.61-170.07-56.29-189.97 29.33-19.89 149.49 38.51 192.31 112.24s8.28 162.79 45.46 220.53c37.18 57.73 146.06 84.14 166.81 51.62s-46.64-123.97-57.7-174.32 34.21-59.59 62.97-44.24c28.75 15.36 40.97 55.32 66.54 109.98 25.57 54.65 64.47 124 103.38 193.35" fill="#fff" fill-opacity=".4" filter="url(#d)"/>
</svg>
